<?xml version="1.0" encoding="UTF-8" standalone="no"?>
<!-- Created with Inkscape (http://www.inkscape.org/) -->

<svg
   version="1.1"
   id="svg1"
   width="32"
   height="32"
   viewBox="0 0 32 32"
   xmlns="http://www.w3.org/2000/svg"
   xmlns:svg="http://www.w3.org/2000/svg">
  <defs
     id="defs1" />
  <g
     id="g1">
    <g
       id="g6"
       transform="translate(0.39533723,8.7093276)">
      <path
         id="path5"
         style="fill:#ffffff;fill-opacity:1"
         d="m 1250.7578,2042.1367 c -5.4815,-0.06 -10.9706,-0.03 -16.4629,0.094 -26.3611,0.5932 -52.8232,3.2972 -79.2031,8.0722 -143.6994,26.0114 -277.35684,91.7082 -376.03321,187.209 -9.01857,8.7284 -17.34117,17.7253 -25.04492,26.9961 -8.71785,-1.6956 -9.72211,-0.694 -14.04101,-0.8301 -5.5176,-0.1739 -12.14746,-0.2466 -21.35157,-0.2754 -18.41004,-0.058 -46.85594,0.099 -91.29882,0.4454 -31.00708,0.2415 -59.4214,0.5094 -80.3125,0.748 -10.44555,0.1193 -18.99354,0.2308 -25.1543,0.3301 -3.08024,0.05 -5.5363,0.094 -7.5293,0.1426 -0.99576,0.024 -1.83984,0.045 -2.89062,0.086 -0.52334,0.02 -1.065,0.039 -2.08789,0.1016 -0.0588,0 -0.0217,0.01 -0.01,0.014 -0.0695,-0.072 -0.19771,-0.1667 -0.33984,-0.205 -0.15089,-0.041 -0.32006,-0.053 -0.56446,-0.049 -0.97745,0.017 -3.21694,0.3413 -9.17968,1.5821 -8.7e-4,1e-4 -0.001,-2e-4 -0.002,0 a 0.41069469,0.41069469 0 0 0 -0.002,0 c -1.50864,0.3139 -2.58106,0.637 -3.90625,0.9492 -2.96212,-1.0217 -6.00508,-1.9597 -8.76172,-2.4688 -11.91325,-2.1997 -16.0376,-1.6712 -24.46875,-1.7656 a 0.41069469,0.41069469 0 0 0 -0.002,0 h -0.004 c -16.91258,-0.1894 -47.4206,0.1285 -114.78515,0.666 -31.56052,0.2517 -58.23972,0.5574 -77.4004,0.877 -9.58028,0.1598 -17.2331,0.3202 -22.99609,0.4922 -2.88096,0.086 -5.21491,0.1667 -7.62891,0.2949 -1.20367,0.064 -2.33918,0.121 -4.39257,0.3125 -1.01957,0.095 -2.19882,0.1894 -4.69922,0.5801 -0.51688,0.081 -0.78954,-0.07 -1.36914,-0.2461 -0.57961,-0.1758 -1.38897,-0.328 -2.72657,-0.125 -2.67518,0.4058 -7.55532,2.1634 -17.99414,7.75 a 0.41069469,0.41069469 0 0 0 -0.006,0 c -9.07807,4.859 -13.06617,7.7623 -15.05468,9.75 -0.99442,0.994 -1.48862,1.7686 -1.83789,2.3984 -0.34928,0.6298 -0.54697,1.0782 -0.97852,1.5332 -1.93181,2.0369 -2.87565,3.1895 -3.72851,4.2188 -1.71291,2.0672 -2.80988,3.5145 -3.97657,5.0625 -2.33643,3.1 -4.66406,6.3369 -7.11718,9.8242 -4.90315,6.9703 -9.38884,13.3491 -14.17383,21.4179 -0.002,0 -0.002,0.01 -0.004,0.01 a 0.41069469,0.41069469 0 0 0 -0.002,0 c -6.21937,10.4917 -12.65724,30.8731 -7.7793,51.2969 3.61937,15.1541 11.70537,26.2246 19.10352,33.4785 -10.40718,17.4447 -21.49148,35.9086 -30.23047,50.4102 -8.78601,14.5795 -15.22686,25.1951 -16.19727,26.705 l -1.47461,2.2911 a 0.41069469,0.41069469 0 0 0 0,0 c -3.83268,5.9777 -6.73098,12.5515 -8.5625,19.4121 -1.82746,2.9971 -3.72896,6.2104 -5.65234,9.5293 -2.03846,3.5176 -4.00791,6.9808 -5.77734,10.2129 -0.88389,1.6145 -1.68373,3.0821 -2.72266,5.1465 -0.39548,0.7858 -0.95328,1.9802 -1.5625,3.3183 -1.842252,2.1763 -2.362155,3.0087 -2.507813,3.5879 -0.07357,0.2926 -0.02959,0.5044 -0.0293,0.5704 2.95e-4,0.066 0.0079,0.1133 -0.171875,0.3886 -1.078328,1.6516 -1.977421,3.096 -2.957031,4.6895 -1.960048,3.1886 -4.125377,6.8269 -6.378907,10.7187 a 0.41069469,0.41069469 0 0 0 -0.01172,0.021 c -6.55e-4,0 -0.0013,0 -0.002,0 l -7.164063,12.3731 a 0.41069469,0.41069469 0 0 0 -0.02148,0.043 c -0.603403,1.3957 -1.158245,2.8116 -1.667969,4.2442 -3.028081,3.3949 -3.855867,4.7036 -4.080078,5.5644 -0.113014,0.4339 -0.05458,0.7205 -0.06445,0.9199 -0.0099,0.1995 -0.05172,0.4183 -0.390625,0.9493 -1.827665,2.8634 -3.607304,5.8038 -5.451172,8.9882 -2.576244,4.4495 -6.075218,10.4051 -6.621094,11.3145 l -2.244141,3.7383 c -6.237049,10.3908 -9.661553,22.4503 -9.816406,34.5683 -0.154852,12.1181 2.960194,24.2638 8.929688,34.8106 5.969493,10.5468 14.777076,19.4693 25.246093,25.5742 10.469018,6.1049 22.572398,9.3756 34.691408,9.377 l 26.3457,-0 c 15.43401,-6e-4 59.58855,-0.2998 99.72461,-0.666 l 72.74805,-0.6641 a 0.41069469,0.41069469 0 0 0 0.002,0 c 12.5393,-0.1523 25.01204,-3.8188 35.64844,-10.4609 0.69169,0.4534 1.43979,0.9587 2.01953,1.3105 9.03184,5.4806 13.3256,6.3367 16.50781,7.2657 6.44533,1.8815 8.5737,1.9513 10.42969,2.2011 3.78467,0.5095 5.15428,0.5319 6.60352,0.6133 2.92665,0.1644 5.10599,0.2072 7.90039,0.2559 5.59254,0.098 13.00536,0.1286 23.18554,0.1172 20.36063,-0.023 51.45731,-0.2348 95.80469,-0.6348 l 73.4375,-0.6621 c 12.38313,-0.1124 24.71762,-3.6415 35.28516,-10.0977 10.56753,-6.4561 19.33815,-15.8202 25.08984,-26.7871 l 7.25977,-13.8437 0.002,-0 a 0.41069469,0.41069469 0 0 0 0.002,-0 l 6.89844,-13.1582 c 2.24178,-2.4283 3.69193,-4.1145 4.5957,-5.2832 0.91182,-1.1791 1.29606,-1.8329 1.42969,-2.3379 0.0668,-0.2525 0.0576,-0.4935 -0.0215,-0.6816 -0.078,-0.1857 -0.19458,-0.2895 -0.24219,-0.3399 0.001,0.011 -0.006,-0.017 0.0781,-0.1562 1.09364,-1.8082 1.95036,-3.3104 2.88282,-4.9668 1.86582,-3.3145 3.89465,-7.0559 6.01562,-11.0938 a 0.41069469,0.41069469 0 0 0 0,-0 l 6.42969,-12.2383 c 2.57102,-3.0361 4.8796,-6.2946 6.88867,-9.7285 a 0.41069469,0.41069469 0 0 0 0.01,-0.018 l 7.10156,-13.6387 -0.0391,0.041 a 0.41069469,0.41069469 0 0 0 0.0684,-0.098 c 2.17534,-4.1773 4.10217,-7.9678 5.71679,-11.2637 0.26816,-0.5473 0.53582,-1.1437 0.78321,-1.6582 3.42827,-3.5856 6.47089,-7.5401 9.05078,-11.7773 a 0.41069469,0.41069469 0 0 0 0.004,-0.01 l 29.62696,-50.914 c 16.61005,15.2264 36.38241,27.5004 57.81445,36.6914 l -7.21875,7.2636 a 0.41069469,0.41069469 0 0 0 -0.0391,0.045 c -0.617,0.8315 -1.21214,1.6785 -1.79102,2.5371 -2.14563,1.4406 -4.2114,3.0012 -6.18164,4.6738 a 0.41069469,0.41069469 0 0 0 -0.0234,0.021 l -14.28711,14.1328 -14.28906,14.1348 c -4.80733,4.7572 -8.90781,10.2258 -12.12695,16.1738 -3.21915,5.948 -5.5565,12.3736 -6.91016,19 -1.35365,6.6264 -1.72414,13.4515 -1.0957,20.1855 0.62844,6.734 2.2561,13.3752 4.8125,19.6367 2.55639,6.2616 6.04054,12.143 10.30469,17.3926 4.26414,5.2497 9.30753,9.8668 14.91211,13.6524 5.60457,3.7856 11.7702,6.7389 18.23242,8.7343 6.46221,1.9955 13.21923,3.0311 19.98242,3.0645 l 23,0.1074 a 0.41069469,0.41069469 0 0 0 0.002,0 c 0,0 0.002,0 0.002,0 10.59572,0.049 71.574,0.8965 131.70898,1.8653 60.2088,0.97 115.0329,1.8779 116.3145,1.9043 l 7.1347,0.1484 c 9.5777,0.1987 19.1927,-1.6287 28.0293,-5.3281 8.8366,-3.6995 16.8854,-9.2676 23.4649,-16.2305 l 13.123,-13.8887 13.1231,-13.8886 a 0.41069469,0.41069469 0 0 0 0.033,-0.039 c 0.9464,-1.3037 1.8445,-2.643 2.6972,-4.0098 1.665,-1.2078 3.2779,-2.4879 4.8281,-3.8398 a 0.41069469,0.41069469 0 0 0 0.027,-0.025 l 8.3652,-8.7422 v -0 a 0.41069469,0.41069469 0 0 0 0.01,-0.01 c 4.9153,-5.1373 10.6005,-11.1546 14.164,-15.0391 l 0.01,-0.01 a 0.41069469,0.41069469 0 0 0 0.012,-0.014 l 4.8144,-5.25 a 0.41069469,0.41069469 0 0 0 0.01,-0.01 c 4.0437,-4.6837 7.4508,-9.9147 10.1016,-15.5059 l 6.3535,-6.5117 a 0.41069469,0.41069469 0 0 0 0,-0 l 0,-0 c 0,0 0,-0 0,-0 3.6841,-3.7745 7.0938,-7.3313 9.9355,-10.3711 1.421,-1.5199 2.6675,-2.8694 4.0137,-4.3808 0.6721,-0.7546 1.3458,-1.5162 2.3867,-2.7676 0.2271,-0.273 0.3513,-0.3351 0.6016,-0.5098 0.2502,-0.1746 0.5795,-0.436 1.0508,-0.9941 0.9425,-1.1163 2.522,-3.4566 5.7363,-9.1309 a 0.41069469,0.41069469 0 0 0 0,-0 c 4e-4,-7e-4 0,-0 0,-0 0.3174,-0.5608 0.6793,-1.4179 0.9844,-1.9961 0.2888,-0.3214 0.6087,-0.6658 0.916,-1.0117 1.8038,-2.03 3.9387,-4.4767 6.5743,-7.5195 5.2711,-6.0859 12.4313,-14.4333 20.9707,-24.4336 17.0784,-20.0005 39.6009,-46.5314 62.416,-73.5 22.8151,-26.9686 45.9051,-54.3549 64.0996,-76.0488 18.1928,-21.6918 28.4382,-33.6128 36.1465,-43.6914 19.9495,-26.0848 35.9714,-53.0347 45.9277,-82.9414 14.6834,-44.1059 12.9388,-94.4346 -12.1387,-135.7735 -21.1967,-34.9419 -60.2086,-62.0154 -99.6699,-72.039 -37.1213,-9.4293 -75.1876,-14.3519 -113.5586,-14.7735 z m -159.3926,236.1524 c 0.2208,0.5444 -0.8767,1.9072 -0.4433,1.5449 0.094,-0.5728 0.2035,-1.0472 0.3203,-1.336 0.049,-0.1219 0.079,-0.1393 0.123,-0.2089 z"
         transform="matrix(0.02175427,0,0,0.02175427,-1.1050141,-44.424542)" />
      <path
         style="fill:#dc1f26;fill-opacity:1;stroke-width:0.0217543"
         d="m 1.5078589,13.07997 c 0.02693,-0.04487 0.09714,-0.164789 0.15603,-0.266492 0.05889,-0.101699 0.121376,-0.199594 0.138868,-0.217539 0.02763,-0.02831 0.310067,-0.03481 2.144568,-0.04921 1.162017,-0.0091 2.116793,-0.01254 2.121725,-0.0077 0.005,0.0049 -0.06023,0.140488 -0.144793,0.301238 l -0.153756,0.292271 -1.582604,0.01442 c -0.870435,0.008 -1.840544,0.01442 -2.155806,0.01446 l -0.573196,1.6e-5 z m 5.872494,0.07018 c 0,-0.0063 0.07417,-0.137569 0.164813,-0.291775 l 0.164808,-0.280376 0.199574,-0.01204 c 0.109766,-0.0066 1.073605,-0.01735 2.1418681,-0.02385 l 1.942293,-0.01178 -0.157956,0.301204 -0.157954,0.301207 -1.597581,0.01439 c -1.9263251,0.01739 -2.6998651,0.01824 -2.6998651,0.0031 z M 19.802037,13.11676 c -1.310149,-0.02112 -2.607245,-0.03943 -2.882439,-0.04071 l -0.500346,-0.0023 0.310859,-0.307504 0.310864,-0.307509 0.809483,0.01419 c 0.445215,0.0079 1.582849,0.02405 2.52807,0.03612 0.945219,0.01204 1.936488,0.02785 2.202815,0.03512 l 0.484228,0.01319 -0.285493,0.302127 -0.285489,0.302134 -0.155229,-0.0031 c -0.08538,-0.0019 -1.22717,-0.02047 -2.537323,-0.04158 z m 0.03262,-0.783123 c -1.292202,-0.02104 -2.408055,-0.03917 -2.479671,-0.04027 l -0.130214,-0.0019 0.282493,-0.284235 c 0.155368,-0.15633 0.297407,-0.292539 0.315637,-0.302688 0.01831,-0.01019 1.220265,0 2.686651,0.02258 1.459427,0.02258 2.79924,0.04129 2.977356,0.04163 l 0.323854,7.69e-4 -0.104773,0.114209 c -0.05762,0.06282 -0.186724,0.199867 -0.286896,0.304559 l -0.182127,0.190352 -0.526426,-0.0031 c -0.289532,-0.0019 -1.583682,-0.02047 -2.875884,-0.04152 z M 2.0740429,12.093307 c 0.08587,-0.148305 0.168814,-0.283231 0.184306,-0.299839 0.02342,-0.02512 0.384732,-0.03331 2.143928,-0.04865 1.163668,-0.01016 2.119806,-0.01439 2.124752,-0.0095 0.01227,0.01227 -0.271985,0.545795 -0.305508,0.573436 -0.01743,0.01435 -0.774121,0.0277 -2.165199,0.03812 l -2.138413,0.01604 z m 5.767302,0.25015 c 0.102718,-0.188383 0.314264,-0.54498 0.32956,-0.555539 0.03262,-0.0225 0.867176,-0.03848 2.6319771,-0.05035 l 1.649573,-0.01108 -0.145509,0.27701 c -0.08002,0.152355 -0.156653,0.288485 -0.170279,0.302507 -0.03047,0.03135 -4.3123561,0.06869 -4.2953221,0.03747 z m -5.442731,-0.803166 c 0,-0.0235 0.306866,-0.553028 0.328105,-0.566154 0.02154,-0.01331 4.244641,-0.05618 4.257598,-0.04322 0.0094,0.0094 -0.268758,0.554704 -0.296087,0.580502 -0.02131,0.02012 -4.289616,0.04884 -4.289616,0.02889 z m 5.942746,-0.07739 c 0.03062,-0.05285 0.102254,-0.176639 0.159147,-0.275106 0.05689,-0.09847 0.115844,-0.189334 0.131013,-0.201922 0.01851,-0.01534 0.724803,-0.02966 2.1441951,-0.04349 1.16414,-0.01135 2.119397,-0.01781 2.122798,-0.01442 0.0035,0.0035 -0.06363,0.140245 -0.148959,0.304104 l -0.155145,0.297922 -0.567573,1.9e-5 c -0.312164,8e-6 -1.281631,0.0065 -2.1543801,0.0145 l -1.586807,0.01446 z m 14.4301231,0.05186 c -0.155541,-0.0031 -1.275737,-0.02074 -2.489319,-0.03905 -1.213582,-0.01831 -2.209474,-0.03624 -2.21309,-0.03986 -0.0035,-0.0035 0.128408,-0.140323 0.293383,-0.303793 l 0.299957,-0.297218 0.455599,0.01139 c 0.620095,0.0155 4.614052,0.07465 5.041386,0.07463 0.289668,-8e-6 0.340974,0.0048 0.326314,0.0307 -0.0096,0.01689 -0.137676,0.153941 -0.284689,0.304558 l -0.267292,0.273851 -0.439723,-0.0048 c -0.241845,-0.0027 -0.56698,-0.0073 -0.722526,-0.01051 z m -1.218236,-0.834385 c -1.304171,-0.02112 -2.420031,-0.03931 -2.479694,-0.04037 l -0.108481,-0.0019 0.204232,-0.192899 c 0.195423,-0.184575 0.203614,-0.196013 0.189803,-0.265062 -0.03012,-0.150656 -0.124846,-0.1940384 -0.3699,-0.169436 -0.405125,0.04067 -0.903314,0.01135 -1.344909,-0.07917 -1.238018,-0.25377 -2.088087,-1.000358 -2.162654,-1.899387 -0.02693,-0.32449 0.08209,-0.73619 0.328006,-1.238841 0.252412,-0.515932 0.556648,-0.923324 1.035924,-1.387174 1.902647,-1.841417 4.559137,-3.159726 7.405199,-3.6748951 1.329881,-0.240726 2.650889,-0.199705 3.91577,0.121592 0.588005,0.149359 0.970215,0.4207951 1.25608,0.8920271 0.287654,0.474183 0.331491,1.078646 0.123534,1.703304 -0.133929,0.402298 -0.421906,0.915213 -0.767696,1.367345 -0.257926,0.337246 -4.06041,4.831969 -4.121169,4.871431 -0.07006,0.0455 0.131275,0.04592 -3.104045,-0.0065 z M 22.23159,7.7081476 c 1.208085,-1.115484 1.413959,-1.318478 1.559322,-1.537471 0.182836,-0.275456 0.314199,-0.639927 0.286292,-0.794334 -0.07349,-0.406626 -0.719212,-0.501885 -1.709873,-0.252246 -0.713174,0.179712 -1.264701,0.470829 -1.6865,0.8902 -0.38658,0.384356 -0.527179,0.639215 -0.502539,0.910939 0.02431,0.267917 0.190391,0.473611 0.446404,0.552828 0.165832,0.05131 0.672954,0.05052 0.953318,-0.0016 0.189314,-0.03512 0.268916,-0.03254 0.268916,0.0087 0,0.01027 -0.04401,0.06825 -0.0978,0.128812 -0.162538,0.18301 -0.171956,0.202994 -0.132039,0.28018 0.044,0.08509 0.08927,0.110032 0.201166,0.110847 0.08697,7.69e-4 0.1052,-0.01246 0.413332,-0.296983 z M 2.8595479,10.633541 c 0.239452,-0.372404 2.040807,-3.3987254 2.040807,-3.4286084 0,-0.02247 -0.02074,-0.05947 -0.04608,-0.08225 -0.04324,-0.03889 -0.08223,-0.04111 -0.632114,-0.03608 -0.463265,0.0043 -0.582665,-3.08e-4 -0.569946,-0.02174 0.09933,-0.167509 0.408223,-0.606627 0.437883,-0.622504 0.02297,-0.01231 0.966182,-0.02804 2.333347,-0.03894 2.932539,-0.02339 2.709725,-0.02589 2.820495,0.03158 0.125835,0.06528 0.192292,0.164866 0.191746,0.287296 -3.85e-4,0.08949 -0.0956,0.261453 -1.109472,2.004026 l -1.109028,1.9061284 -0.783154,0.01319 c -0.430731,0.0073 -1.418415,0.01873 -2.194852,0.0255 l -1.411698,0.01231 z m 5.921989,-0.01346 c 0.01792,-0.0347 0.476672,-0.8010934 1.019392,-1.7030814 0.5427231,-0.901991 0.9934401,-1.657824 1.0016001,-1.679629 0.0081,-0.02182 0.0051,-0.05772 -0.0067,-0.07983 -0.04415,-0.08251 -0.152291,-0.09439 -0.711547,-0.07815 -0.2906951,0.0084 -0.5285341,0.0098 -0.5285341,0.0031 0,-0.0068 0.09469,-0.154441 0.210429,-0.328152 0.136358,-0.204667 0.226335,-0.319154 0.2556111,-0.325247 0.02485,-0.0051 1.146495,-0.01796 2.492539,-0.02847 1.930595,-0.01504 2.470193,-0.01335 2.555519,0.008 0.07862,0.01966 0.130609,0.05112 0.190349,0.115168 0.07101,0.07613 0.08219,0.102056 0.08219,0.190741 0,0.09609 -0.07091,0.224483 -1.110271,2.010596 l -1.110271,1.9079594 -0.78779,0.01289 c -0.433282,0.0071 -1.417199,0.01839 -2.186477,0.02508 l -1.3986911,0.01219 z"
         id="path4" />
    </g>
  </g>
</svg>
